<svg xmlns="http://www.w3.org/2000/svg" viewBox="0 0 700 820" font-family="Inter, Segoe UI, Arial, sans-serif" font-size="14">
  <defs>
    <filter id="shadow" x="-2%" y="-2%" width="104%" height="104%">
      <feDropShadow dx="1" dy="1" stdDeviation="2" flood-opacity="0.15"/>
    </filter>
    <marker id="arrow" viewBox="0 0 10 7" refX="10" refY="3.5" markerWidth="9" markerHeight="7" orient="auto-start-reverse">
      <polygon points="0 0, 10 3.5, 0 7" fill="#666"/>
    </marker>
  </defs>

  <!-- Title -->
  <text x="350" y="28" text-anchor="middle" font-size="22" font-weight="bold" fill="#1a1a2e">CertChain — Network Topology</text>

  <!-- ===== Central Namespace ===== -->
  <rect x="10" y="45" width="680" height="250" rx="12" fill="#e8f0fe" stroke="#4285f4" stroke-width="1.5" filter="url(#shadow)"/>
  <text x="25" y="72" font-size="17" font-weight="bold" fill="#1a73e8">certchain (Central)</text>

  <!-- Row 1: Core infrastructure -->
  <rect x="25" y="85" width="145" height="55" rx="6" fill="#fff" stroke="#34a853" stroke-width="1.5"/>
  <text x="97" y="108" text-anchor="middle" font-weight="600" font-size="14" fill="#34a853">Fabric CA</text>
  <text x="97" y="128" text-anchor="middle" font-size="12" fill="#666">TLS + MSP certs</text>

  <rect x="185" y="85" width="145" height="55" rx="6" fill="#fff" stroke="#ea4335" stroke-width="1.5"/>
  <text x="257" y="108" text-anchor="middle" font-weight="600" font-size="14" fill="#ea4335">Orderer 0</text>
  <text x="257" y="128" text-anchor="middle" font-size="12" fill="#666">SmartBFT</text>

  <rect x="345" y="85" width="145" height="55" rx="6" fill="#fff" stroke="#fbbc04" stroke-width="1.5"/>
  <text x="417" y="108" text-anchor="middle" font-weight="600" font-size="14" fill="#f29900">verify-api</text>
  <text x="417" y="128" text-anchor="middle" font-size="12" fill="#666">Quarkus</text>

  <rect x="505" y="85" width="170" height="55" rx="6" fill="#fff" stroke="#fbbc04" stroke-width="1.5"/>
  <text x="590" y="108" text-anchor="middle" font-weight="600" font-size="14" fill="#f29900">cert-portal</text>
  <text x="590" y="128" text-anchor="middle" font-size="12" fill="#666">React + Vite</text>

  <!-- Row 2: Supporting services -->
  <rect x="25" y="155" width="145" height="55" rx="6" fill="#fff" stroke="#9c27b0" stroke-width="1.5"/>
  <text x="97" y="178" text-anchor="middle" font-weight="600" font-size="14" fill="#9c27b0">Keycloak</text>
  <text x="97" y="198" text-anchor="middle" font-size="12" fill="#666">Central IdP</text>

  <rect x="185" y="155" width="145" height="55" rx="6" fill="#fff" stroke="#0d47a1" stroke-width="1.5"/>
  <text x="257" y="178" text-anchor="middle" font-weight="600" font-size="14" fill="#0d47a1">Postgres</text>
  <text x="257" y="198" text-anchor="middle" font-size="12" fill="#666">KC store</text>

  <rect x="345" y="155" width="145" height="55" rx="6" fill="#fff" stroke="#ff6d00" stroke-width="1.5"/>
  <text x="417" y="178" text-anchor="middle" font-weight="600" font-size="14" fill="#ff6d00">Grafana</text>
  <text x="417" y="198" text-anchor="middle" font-size="12" fill="#666">3 dashboards</text>

  <rect x="505" y="155" width="170" height="55" rx="6" fill="#fff" stroke="#00897b" stroke-width="1.5"/>
  <text x="590" y="178" text-anchor="middle" font-weight="600" font-size="14" fill="#00897b">certcontract</text>
  <text x="590" y="198" text-anchor="middle" font-size="12" fill="#666">Go chaincode (CcaaS)</text>

  <!-- Jobs row -->
  <rect x="25" y="225" width="130" height="40" rx="6" fill="#fff" stroke="#78909c" stroke-width="1.5" stroke-dasharray="5,3"/>
  <text x="90" y="250" text-anchor="middle" font-weight="600" font-size="12" fill="#78909c">copy-secrets (w8)</text>

  <rect x="170" y="225" width="130" height="40" rx="6" fill="#fff" stroke="#78909c" stroke-width="1.5" stroke-dasharray="5,3"/>
  <text x="235" y="250" text-anchor="middle" font-weight="600" font-size="12" fill="#78909c">genesis (w9)</text>

  <rect x="315" y="225" width="140" height="40" rx="6" fill="#fff" stroke="#78909c" stroke-width="1.5" stroke-dasharray="5,3"/>
  <text x="385" y="250" text-anchor="middle" font-weight="600" font-size="12" fill="#78909c">channel-setup (w10)</text>

  <rect x="470" y="225" width="160" height="40" rx="6" fill="#fff" stroke="#78909c" stroke-width="1.5" stroke-dasharray="5,3"/>
  <text x="550" y="250" text-anchor="middle" font-weight="600" font-size="12" fill="#78909c">chaincode-lifecycle (w11)</text>

  <!-- Legend -->
  <rect x="25" y="275" width="10" height="10" rx="2" fill="#78909c"/>
  <text x="40" y="285" font-size="11" fill="#666">Dashed = one-time Jobs</text>

  <!-- ===== BFT Cluster label ===== -->
  <rect x="240" y="308" width="220" height="26" rx="12" fill="#ea4335" opacity="0.9"/>
  <text x="350" y="326" text-anchor="middle" font-size="14" font-weight="bold" fill="#fff">SmartBFT Cluster (4 nodes)</text>

  <!-- ===== Org Namespaces ===== -->
  <!-- TechPulse -->
  <rect x="10" y="348" width="220" height="195" rx="12" fill="#fce4ec" stroke="#e91e63" stroke-width="1.5" filter="url(#shadow)"/>
  <text x="25" y="375" font-size="16" font-weight="bold" fill="#c2185b">certchain-techpulse</text>

  <rect x="25" y="390" width="90" height="48" rx="5" fill="#fff" stroke="#1565c0" stroke-width="1"/>
  <text x="70" y="412" text-anchor="middle" font-weight="600" font-size="13" fill="#1565c0">Peer 0</text>
  <text x="70" y="430" text-anchor="middle" font-size="11" fill="#666">Endorser</text>

  <rect x="125" y="390" width="90" height="48" rx="5" fill="#fff" stroke="#ea4335" stroke-width="1"/>
  <text x="170" y="412" text-anchor="middle" font-weight="600" font-size="13" fill="#ea4335">Orderer 1</text>
  <text x="170" y="430" text-anchor="middle" font-size="11" fill="#666">SmartBFT</text>

  <rect x="25" y="448" width="90" height="48" rx="5" fill="#fff" stroke="#fbbc04" stroke-width="1"/>
  <text x="70" y="470" text-anchor="middle" font-weight="600" font-size="13" fill="#f29900">admin-api</text>
  <text x="70" y="488" text-anchor="middle" font-size="11" fill="#666">Quarkus</text>

  <rect x="125" y="448" width="90" height="48" rx="5" fill="#fff" stroke="#fbbc04" stroke-width="1"/>
  <text x="170" y="470" text-anchor="middle" font-weight="600" font-size="13" fill="#f29900">course-mgr</text>
  <text x="170" y="488" text-anchor="middle" font-size="11" fill="#666">React</text>

  <rect x="25" y="506" width="90" height="28" rx="5" fill="#fff" stroke="#9c27b0" stroke-width="1"/>
  <text x="70" y="525" text-anchor="middle" font-weight="600" font-size="12" fill="#9c27b0">Keycloak</text>

  <rect x="125" y="506" width="90" height="28" rx="5" fill="#fff" stroke="#0d47a1" stroke-width="1"/>
  <text x="170" y="525" text-anchor="middle" font-weight="600" font-size="12" fill="#0d47a1">CouchDB</text>

  <!-- DataForge -->
  <rect x="240" y="348" width="220" height="195" rx="12" fill="#e8eaf6" stroke="#3f51b5" stroke-width="1.5" filter="url(#shadow)"/>
  <text x="255" y="375" font-size="16" font-weight="bold" fill="#283593">certchain-dataforge</text>

  <rect x="255" y="390" width="90" height="48" rx="5" fill="#fff" stroke="#1565c0" stroke-width="1"/>
  <text x="300" y="412" text-anchor="middle" font-weight="600" font-size="13" fill="#1565c0">Peer 0</text>
  <text x="300" y="430" text-anchor="middle" font-size="11" fill="#666">Endorser</text>

  <rect x="355" y="390" width="90" height="48" rx="5" fill="#fff" stroke="#ea4335" stroke-width="1"/>
  <text x="400" y="412" text-anchor="middle" font-weight="600" font-size="13" fill="#ea4335">Orderer 2</text>
  <text x="400" y="430" text-anchor="middle" font-size="11" fill="#666">SmartBFT</text>

  <rect x="255" y="448" width="90" height="48" rx="5" fill="#fff" stroke="#fbbc04" stroke-width="1"/>
  <text x="300" y="470" text-anchor="middle" font-weight="600" font-size="13" fill="#f29900">admin-api</text>
  <text x="300" y="488" text-anchor="middle" font-size="11" fill="#666">Quarkus</text>

  <rect x="355" y="448" width="90" height="48" rx="5" fill="#fff" stroke="#fbbc04" stroke-width="1"/>
  <text x="400" y="470" text-anchor="middle" font-weight="600" font-size="13" fill="#f29900">course-mgr</text>
  <text x="400" y="488" text-anchor="middle" font-size="11" fill="#666">React</text>

  <rect x="255" y="506" width="90" height="28" rx="5" fill="#fff" stroke="#9c27b0" stroke-width="1"/>
  <text x="300" y="525" text-anchor="middle" font-weight="600" font-size="12" fill="#9c27b0">Keycloak</text>

  <rect x="355" y="506" width="90" height="28" rx="5" fill="#fff" stroke="#0d47a1" stroke-width="1"/>
  <text x="400" y="525" text-anchor="middle" font-weight="600" font-size="12" fill="#0d47a1">CouchDB</text>

  <!-- NeuralPath -->
  <rect x="470" y="348" width="220" height="195" rx="12" fill="#e0f2f1" stroke="#009688" stroke-width="1.5" filter="url(#shadow)"/>
  <text x="485" y="375" font-size="16" font-weight="bold" fill="#00695c">certchain-neuralpath</text>

  <rect x="485" y="390" width="90" height="48" rx="5" fill="#fff" stroke="#1565c0" stroke-width="1"/>
  <text x="530" y="412" text-anchor="middle" font-weight="600" font-size="13" fill="#1565c0">Peer 0</text>
  <text x="530" y="430" text-anchor="middle" font-size="11" fill="#666">Endorser</text>

  <rect x="585" y="390" width="90" height="48" rx="5" fill="#fff" stroke="#ea4335" stroke-width="1"/>
  <text x="630" y="412" text-anchor="middle" font-weight="600" font-size="13" fill="#ea4335">Orderer 3</text>
  <text x="630" y="430" text-anchor="middle" font-size="11" fill="#666">SmartBFT</text>

  <rect x="485" y="448" width="90" height="48" rx="5" fill="#fff" stroke="#fbbc04" stroke-width="1"/>
  <text x="530" y="470" text-anchor="middle" font-weight="600" font-size="13" fill="#f29900">admin-api</text>
  <text x="530" y="488" text-anchor="middle" font-size="11" fill="#666">Quarkus</text>

  <rect x="585" y="448" width="90" height="48" rx="5" fill="#fff" stroke="#fbbc04" stroke-width="1"/>
  <text x="630" y="470" text-anchor="middle" font-weight="600" font-size="13" fill="#f29900">course-mgr</text>
  <text x="630" y="488" text-anchor="middle" font-size="11" fill="#666">React</text>

  <rect x="485" y="506" width="90" height="28" rx="5" fill="#fff" stroke="#9c27b0" stroke-width="1"/>
  <text x="530" y="525" text-anchor="middle" font-weight="600" font-size="12" fill="#9c27b0">Keycloak</text>

  <rect x="585" y="506" width="90" height="28" rx="5" fill="#fff" stroke="#0d47a1" stroke-width="1"/>
  <text x="630" y="525" text-anchor="middle" font-weight="600" font-size="12" fill="#0d47a1">CouchDB</text>

  <!-- Orderer cluster connections -->
  <line x1="257" y1="140" x2="170" y2="390" stroke="#ea4335" stroke-width="1.5" stroke-dasharray="4,3" marker-end="url(#arrow)"/>
  <line x1="257" y1="140" x2="400" y2="390" stroke="#ea4335" stroke-width="1.5" stroke-dasharray="4,3" marker-end="url(#arrow)"/>
  <line x1="257" y1="140" x2="630" y2="390" stroke="#ea4335" stroke-width="1.5" stroke-dasharray="4,3" marker-end="url(#arrow)"/>

  <!-- ===== External users ===== -->
  <rect x="25" y="570" width="150" height="52" rx="25" fill="#1a73e8" filter="url(#shadow)"/>
  <text x="100" y="594" text-anchor="middle" font-weight="600" font-size="15" fill="#fff">Registrar</text>
  <text x="100" y="612" text-anchor="middle" font-size="11" fill="#ddd">Course Manager</text>

  <rect x="195" y="570" width="150" height="52" rx="25" fill="#34a853" filter="url(#shadow)"/>
  <text x="270" y="594" text-anchor="middle" font-weight="600" font-size="15" fill="#fff">Student</text>
  <text x="270" y="612" text-anchor="middle" font-size="11" fill="#ddd">Cert Portal</text>

  <rect x="365" y="570" width="150" height="52" rx="25" fill="#fbbc04" filter="url(#shadow)"/>
  <text x="440" y="594" text-anchor="middle" font-weight="600" font-size="15" fill="#fff">Employer</text>
  <text x="440" y="612" text-anchor="middle" font-size="11" fill="#ddd">Public Verify</text>

  <rect x="535" y="570" width="150" height="52" rx="25" fill="#9c27b0" filter="url(#shadow)"/>
  <text x="610" y="594" text-anchor="middle" font-weight="600" font-size="15" fill="#fff">Platform Admin</text>
  <text x="610" y="612" text-anchor="middle" font-size="11" fill="#ddd">ArgoCD + Grafana</text>

  <!-- User arrows -->
  <line x1="100" y1="570" x2="70" y2="496" stroke="#1a73e8" stroke-width="1.5" marker-end="url(#arrow)"/>
  <line x1="270" y1="570" x2="590" y2="140" stroke="#34a853" stroke-width="1.5" marker-end="url(#arrow)"/>
  <line x1="440" y1="570" x2="417" y2="140" stroke="#fbbc04" stroke-width="1.5" marker-end="url(#arrow)"/>
  <line x1="610" y1="570" x2="417" y2="210" stroke="#9c27b0" stroke-width="1.5" marker-end="url(#arrow)"/>

  <!-- Footer -->
  <text x="350" y="660" text-anchor="middle" font-size="12" fill="#999">Each org namespace contains identical components. Orderers form a 4-node SmartBFT cluster across namespaces.</text>
  <text x="350" y="680" text-anchor="middle" font-size="12" fill="#999">Central namespace hosts shared infrastructure: Fabric CA, cert-portal, verify-api, Grafana, and central Keycloak.</text>
</svg>
